<svg width="100%" viewBox="0 0 900 560" xmlns="http://www.w3.org/2000/svg">
<title>Workstation MRI - Cuerpo con imágenes</title>
<defs>
  <radialGradient id="bg" cx="35%" cy="50%" r="70%">
    <stop offset="0%" stop-color="#e8eef4"/>
    <stop offset="60%" stop-color="#c8d4de"/>
    <stop offset="100%" stop-color="#a8b8c8"/>
  </radialGradient>
  <radialGradient id="mriGlow" cx="50%" cy="50%" r="50%">
    <stop offset="0%" stop-color="#d8e8f4" stop-opacity="0.6"/>
    <stop offset="100%" stop-color="#d8e8f4" stop-opacity="0"/>
  </radialGradient>
  <linearGradient id="monBase" x1="0%" y1="0%" x2="0%" y2="100%">
    <stop offset="0%" stop-color="#1a1e26"/>
    <stop offset="100%" stop-color="#0c0e14"/>
  </linearGradient>
  <linearGradient id="monFrame" x1="0%" y1="0%" x2="100%" y2="100%">
    <stop offset="0%" stop-color="#2a2e38"/>
    <stop offset="100%" stop-color="#16181e"/>
  </linearGradient>
  <radialGradient id="screenBg" cx="50%" cy="45%" r="60%">
    <stop offset="0%" stop-color="#0c1420"/>
    <stop offset="100%" stop-color="#040608"/>
  </radialGradient>
  <radialGradient id="bodyGlow" cx="50%" cy="45%" r="55%">
    <stop offset="0%" stop-color="#d8e8f0"/>
    <stop offset="50%" stop-color="#a0b8c8"/>
    <stop offset="100%" stop-color="#506878"/>
  </radialGradient>
  <filter id="blur">
    <feGaussianBlur stdDeviation="8"/>
  </filter>
  <filter id="blurMid">
    <feGaussianBlur stdDeviation="3"/>
  </filter>
  <filter id="shadow">
    <feDropShadow dx="12" dy="20" stdDeviation="24" flood-color="#000" flood-opacity="0.45"/>
  </filter>
  <linearGradient id="kbGrad" x1="0%" y1="0%" x2="0%" y2="100%">
    <stop offset="0%" stop-color="#282c34"/>
    <stop offset="100%" stop-color="#1a1e24"/>
  </linearGradient>
</defs>

<!-- ============================================================ -->
<!--   FONDO - SALA CON RESONADOR DIFUMINADO                    -->
<!-- ============================================================ -->
<rect x="0" y="0" width="900" height="560" fill="url(#bg)"/>

<!-- Suelo -->
<rect x="0" y="400" width="900" height="160" fill="#c8d4de" opacity="0.5"/>
<rect x="0" y="398" width="900" height="4" fill="#b8c8d4" opacity="0.4"/>

<!-- RESONADOR DE FONDO (difuminado, como en la foto) -->
<g opacity="0.45" filter="url(#blur)">
  <!-- Cuerpo resonador -->
  <rect x="30" y="80" width="520" height="320" rx="80" fill="#d8e0e8"/>
  <rect x="50" y="100" width="480" height="280" rx="70" fill="#e8eef4"/>
  <!-- Franja superior/inferior -->
  <rect x="30" y="80" width="520" height="40" rx="80" fill="#c0ccd8"/>
  <rect x="30" y="360" width="520" height="40" rx="80" fill="#c0ccd8"/>
  <!-- Aro luz azul -->
  <circle cx="290" cy="240" r="148" fill="#c0d8f0"/>
  <circle cx="290" cy="240" r="132" fill="#a8c8e8"/>
  <circle cx="290" cy="240" r="116" fill="#e8f2f8"/>
  <circle cx="290" cy="240" r="100" fill="#d0e8f4"/>
  <circle cx="290" cy="240" r="82" fill="#1a3050" opacity="0.6"/>
  <!-- Anillo luz azul característico -->
  <circle cx="290" cy="240" r="116" fill="none" stroke="#60a8d8" stroke-width="6" opacity="0.8"/>
  <!-- Cara lateral -->
  <rect x="548" y="120" width="70" height="240" rx="20" fill="#c0ccd8"/>
  <!-- Camilla -->
  <rect x="68" y="310" width="280" height="20" rx="5" fill="#c8dce8"/>
  <rect x="68" y="303" width="280" height="12" rx="5" fill="#7ecece"/>
  <rect x="68" y="328" width="280" height="30" rx="5" fill="#b8c8d4"/>
  <!-- Pedestal -->
  <rect x="210" y="355" width="80" height="50" rx="5" fill="#a8b8c4"/>
  <!-- Panel control -->
  <rect x="420" y="180" width="50" height="70" rx="6" fill="#1a2838"/>
  <rect x="548" y="195" width="60" height="30" rx="4" fill="#c8d4de"/>
  <!-- Base resonador -->
  <rect x="50" y="398" width="500" height="12" rx="4" fill="#b0bcc8"/>
</g>

<!-- Glow luz azul resonador -->
<ellipse cx="290" cy="240" rx="180" ry="160" fill="url(#mriGlow)" opacity="0.5"/>

<!-- ============================================================ -->
<!--   MONITOR (perspectiva 3/4 leve, como en la foto)          -->
<!-- ============================================================ -->

<!-- Sombra monitor -->
<ellipse cx="640" cy="510" rx="180" ry="22" fill="#000" opacity="0.25"/>

<g filter="url(#shadow)">

<!-- Marco monitor - forma ligeramente trapezoidal (perspectiva) -->
<path d="M438,68 L848,62 L860,468 L432,474 Z" fill="url(#monFrame)" rx="10"/>
<path d="M444,74 L842,68 L854,462 L438,468 Z" fill="#101418"/>

<!-- Pantalla -->
<path d="M452,84 L834,78 L844,452 L448,458 Z" fill="url(#screenBg)"/>

<!-- ============================================================ -->
<!--   CONTENIDO PANTALLA                                        -->
<!-- ============================================================ -->

<!-- CUERPO HUMANO CENTRAL (silueta MRI) -->
<!-- Sombra cuerpo -->
<ellipse cx="645" cy="430" rx="40" ry="8" fill="#000" opacity="0.4"/>

<!-- Cabeza -->
<ellipse cx="644" cy="118" rx="30" ry="32" fill="#1a2c3c" opacity="0.9"/>
<ellipse cx="642" cy="116" rx="22" ry="24" fill="#2a3e50" opacity="0.85"/>
<ellipse cx="640" cy="114" rx="14" ry="16" fill="#3a5068" opacity="0.8"/>
<!-- Detalle cerebro -->
<ellipse cx="640" cy="110" rx="10" ry="11" fill="#4a6078" opacity="0.7"/>

<!-- Cuello -->
<rect x="634" y="148" width="20" height="18" rx="4" fill="#1e3040" opacity="0.8"/>

<!-- Clavículas -->
<path d="M644,166 Q626,162 612,168" fill="none" stroke="#5a7890" stroke-width="3" stroke-linecap="round"/>
<path d="M644,166 Q662,162 676,168" fill="none" stroke="#5a7890" stroke-width="3" stroke-linecap="round"/>

<!-- Torso -->
<path d="M614,168 L614,290 Q614,302 644,306 Q674,302 674,290 L674,168 Z" fill="#182838" opacity="0.85"/>

<!-- Costillas izquierdas -->
<path d="M644,184 Q630,182 620,188 Q612,196 614,204 Q618,210 626,208 Q634,204 644,200" fill="none" stroke="#4a6878" stroke-width="2"/>
<path d="M644,196 Q628,194 618,200 Q610,210 612,220 Q616,228 626,224 Q636,218 644,214" fill="none" stroke="#4a6878" stroke-width="2"/>
<path d="M644,208 Q626,206 616,214 Q608,224 610,234 Q614,242 626,238 Q636,232 644,228" fill="none" stroke="#4a6878" stroke-width="1.8"/>
<path d="M644,220 Q626,218 616,226 Q608,236 612,248 Q616,256 628,252 Q638,246 644,242" fill="none" stroke="#4a6878" stroke-width="1.8"/>
<path d="M644,232 Q628,230 618,238 Q610,250 614,260 Q618,268 630,264 Q640,258 644,254" fill="none" stroke="#406070" stroke-width="1.5"/>

<!-- Costillas derechas -->
<path d="M644,184 Q658,182 668,188 Q676,196 674,204 Q670,210 662,208 Q654,204 644,200" fill="none" stroke="#4a6878" stroke-width="2"/>
<path d="M644,196 Q660,194 670,200 Q678,210 676,220 Q672,228 662,224 Q652,218 644,214" fill="none" stroke="#4a6878" stroke-width="2"/>
<path d="M644,208 Q662,206 672,214 Q680,224 678,234 Q674,242 662,238 Q652,232 644,228" fill="none" stroke="#4a6878" stroke-width="1.8"/>
<path d="M644,220 Q662,218 672,226 Q680,236 676,248 Q672,256 660,252 Q650,246 644,242" fill="none" stroke="#4a6878" stroke-width="1.8"/>
<path d="M644,232 Q660,230 670,238 Q678,250 674,260 Q670,268 658,264 Q648,258 644,254" fill="none" stroke="#406070" stroke-width="1.5"/>

<!-- Columna vertebral -->
<rect x="641" y="166" width="6" height="140" rx="2" fill="#3a5870" opacity="0.7"/>
<!-- Vértebras -->
<rect x="639" y="170" width="10" height="5" rx="1" fill="#5a7890"/>
<rect x="639" y="180" width="10" height="5" rx="1" fill="#5a7890"/>
<rect x="639" y="190" width="10" height="5" rx="1" fill="#5a7890"/>
<rect x="639" y="200" width="10" height="5" rx="1" fill="#5a7890"/>
<rect x="639" y="210" width="10" height="5" rx="1" fill="#5a7890"/>
<rect x="639" y="220" width="10" height="5" rx="1" fill="#5a7890"/>
<rect x="639" y="230" width="10" height="5" rx="1" fill="#5a7890"/>
<rect x="639" y="240" width="10" height="5" rx="1" fill="#5a7890"/>
<rect x="639" y="250" width="10" height="5" rx="1" fill="#5a7890"/>
<rect x="639" y="260" width="10" height="5" rx="1" fill="#5a7890"/>
<rect x="638" y="272" width="12" height="6" rx="1" fill="#4a6880"/>
<rect x="638" y="282" width="12" height="6" rx="1" fill="#4a6880"/>
<rect x="638" y="292" width="12" height="6" rx="1" fill="#4a6880"/>

<!-- Brazos -->
<rect x="596" y="172" width="16" height="96" rx="8" fill="#1e3448" opacity="0.9"/>
<rect x="674" y="172" width="16" height="96" rx="8" fill="#1e3448" opacity="0.9"/>
<!-- Antebrazos -->
<rect x="594" y="270" width="12" height="78" rx="6" fill="#1a2e40" opacity="0.8"/>
<rect x="678" y="270" width="12" height="78" rx="6" fill="#1a2e40" opacity="0.8"/>
<!-- Manos -->
<ellipse cx="600" cy="354" rx="8" ry="10" fill="#1a2e40" opacity="0.7"/>
<ellipse cx="684" cy="354" rx="8" ry="10" fill="#1a2e40" opacity="0.7"/>

<!-- Pelvis -->
<path d="M618,302 Q606,298 600,306 Q594,316 598,328 Q604,340 620,344 Q636,348 644,348 Q652,348 668,344 Q684,340 690,328 Q694,316 688,306 Q682,298 670,302 Q660,306 644,306 Q628,306 618,302 Z" fill="#1e3040" opacity="0.85"/>
<path d="M620,304 Q608,302 602,310 Q596,320 600,330 Q606,340 622,344" fill="none" stroke="#4a6880" stroke-width="1.5" opacity="0.6"/>
<path d="M668,304 Q680,302 686,310 Q692,320 688,330 Q682,340 666,344" fill="none" stroke="#4a6880" stroke-width="1.5" opacity="0.6"/>

<!-- Fémures -->
<rect x="620" y="346" width="16" height="90" rx="8" fill="#1a2e40" opacity="0.9"/>
<rect x="650" y="346" width="16" height="90" rx="8" fill="#1a2e40" opacity="0.9"/>
<!-- Rodillas -->
<ellipse cx="628" cy="440" rx="10" ry="8" fill="#2a3e50" opacity="0.8"/>
<ellipse cx="658" cy="440" rx="10" ry="8" fill="#2a3e50" opacity="0.8"/>
<!-- Tibias -->
<rect x="622" y="446" width="12" height="70" rx="5" fill="#182838" opacity="0.85"/>
<rect x="652" y="446" width="12" height="70" rx="5" fill="#182838" opacity="0.85"/>
<!-- Pies -->
<ellipse cx="628" cy="520" rx="14" ry="7" fill="#1a2838" opacity="0.7"/>
<ellipse cx="658" cy="520" rx="14" ry="7" fill="#1a2838" opacity="0.7"/>

<!-- ============================================================ -->
<!--   MINIATURAS MRI ALREDEDOR DEL CUERPO (con marco azul)     -->
<!-- ============================================================ -->

<!-- CEREBRO (arriba centro) -->
<rect x="586" y="72" width="72" height="58" rx="4" fill="#0c1420" stroke="#2878b8" stroke-width="2"/>
<ellipse cx="622" cy="98" rx="24" ry="20" fill="#1a2c3c"/>
<ellipse cx="620" cy="96" rx="16" ry="14" fill="#2a3e52"/>
<ellipse cx="618" cy="94" rx="10" ry="9" fill="#3a5268"/>
<path d="M606,90 Q614,84 622,90 Q630,84 636,90" fill="none" stroke="#4a6278" stroke-width="1.5"/>
<path d="M604,98 Q614,92 622,98 Q630,92 638,98" fill="none" stroke="#4a6278" stroke-width="1.5"/>
<text x="622" y="122" text-anchor="middle" font-family="monospace" font-size="6" fill="#2878b8">BRAIN</text>

<!-- TÓRAX AXIAL (arriba derecha) -->
<rect x="672" y="84" width="80" height="64" rx="4" fill="#0c1420" stroke="#2878b8" stroke-width="2"/>
<ellipse cx="712" cy="112" rx="28" ry="22" fill="#1a2838"/>
<ellipse cx="700" cy="112" rx="8" ry="10" fill="#243040" opacity="0.8"/>
<ellipse cx="724" cy="112" rx="8" ry="10" fill="#243040" opacity="0.8"/>
<rect x="708" y="102" width="8" height="20" rx="2" fill="#1a2838"/>
<path d="M688,106 Q696,102 700,108" fill="none" stroke="#3a5268" stroke-width="1.5"/>
<path d="M724,106 Q730,102 736,108" fill="none" stroke="#3a5268" stroke-width="1.5"/>
<text x="712" y="140" text-anchor="middle" font-family="monospace" font-size="6" fill="#2878b8">CHEST</text>

<!-- ABDOMEN / PELVIS (izquierda) -->
<rect x="460" y="230" width="78" height="78" rx="4" fill="#0c1420" stroke="#2878b8" stroke-width="2"/>
<ellipse cx="499" cy="266" rx="26" ry="28" fill="#1a2838"/>
<ellipse cx="499" cy="262" rx="18" ry="16" fill="#243040"/>
<ellipse cx="490" cy="272" rx="10" ry="12" fill="#1a2c3c" opacity="0.7"/>
<ellipse cx="508" cy="272" rx="10" ry="12" fill="#1a2c3c" opacity="0.7"/>
<text x="499" y="300" text-anchor="middle" font-family="monospace" font-size="6" fill="#2878b8">PELVIS</text>

<!-- RODILLA (abajo izquierda) -->
<rect x="462" y="348" width="72" height="68" rx="4" fill="#0c1420" stroke="#2878b8" stroke-width="2"/>
<ellipse cx="498" cy="378" rx="22" ry="24" fill="#1a2838"/>
<ellipse cx="498" cy="374" rx="14" ry="12" fill="#2a3e50"/>
<rect x="494" y="362" width="8" height="16" rx="3" fill="#3a5268"/>
<rect x="494" y="380" width="8" height="18" rx="3" fill="#3a5268"/>
<ellipse cx="498" cy="378" rx="8" ry="6" fill="#1e3040"/>
<text x="498" y="408" text-anchor="middle" font-family="monospace" font-size="6" fill="#2878b8">KNEE</text>

<!-- COLUMNA SAGITAL (derecha) -->
<rect x="754" y="200" width="72" height="120" rx="4" fill="#0c1420" stroke="#2878b8" stroke-width="2"/>
<rect x="784" y="210" width="10" height="100" rx="3" fill="#1a2838"/>
<rect x="782" y="215" width="14" height="7" rx="2" fill="#2a3e50"/>
<rect x="782" y="226" width="14" height="7" rx="2" fill="#2a3e50"/>
<rect x="782" y="237" width="14" height="7" rx="2" fill="#2a3e50"/>
<rect x="782" y="248" width="14" height="7" rx="2" fill="#2a3e50"/>
<rect x="782" y="259" width="14" height="7" rx="2" fill="#2a3e50"/>
<rect x="782" y="270" width="14" height="7" rx="2" fill="#2a3e50"/>
<rect x="782" y="281" width="14" height="7" rx="2" fill="#2a3e50"/>
<rect x="782" y="292" width="14" height="7" rx="2" fill="#2a3e50"/>
<text x="790" y="312" text-anchor="middle" font-family="monospace" font-size="6" fill="#2878b8">SPINE</text>

<!-- HOMBRO (arriba izquierda) -->
<rect x="464" y="138" width="68" height="64" rx="4" fill="#0c1420" stroke="#2878b8" stroke-width="2"/>
<ellipse cx="498" cy="166" rx="22" ry="20" fill="#1a2838"/>
<ellipse cx="494" cy="164" rx="12" ry="12" fill="#243040"/>
<circle cx="508" cy="162" r="7" fill="#1a2c3c"/>
<circle cx="508" cy="162" r="4" fill="#243040"/>
<text x="498" y="194" text-anchor="middle" font-family="monospace" font-size="6" fill="#2878b8">SHOULDER</text>

<!-- TÓRAX CORONAL (derecha arriba) -->
<rect x="756" y="96" width="74" height="80" rx="4" fill="#0c1420" stroke="#2878b8" stroke-width="2"/>
<ellipse cx="793" cy="132" rx="24" ry="28" fill="#1a2838"/>
<rect x="789" y="108" width="8" height="48" rx="2" fill="#2a3c50" opacity="0.7"/>
<path d="M793,116 Q778,112 768,118 Q762,126 764,136 Q768,142 778,140 Q786,136 793,130" fill="none" stroke="#3a5268" stroke-width="2"/>
<path d="M793,116 Q808,112 818,118 Q824,126 822,136 Q818,142 808,140 Q800,136 793,130" fill="none" stroke="#3a5268" stroke-width="2"/>
<text x="793" y="168" text-anchor="middle" font-family="monospace" font-size="6" fill="#2878b8">THORAX</text>

<!-- Marco selector activo (líneas de conexión del body map) -->
<line x1="622" y1="130" x2="640" y2="118" stroke="#2878b8" stroke-width="1" opacity="0.5" stroke-dasharray="3 2"/>
<line x1="538" y1="196" x2="610" y2="190" stroke="#2878b8" stroke-width="1" opacity="0.5" stroke-dasharray="3 2"/>
<line x1="538" y1="266" x2="614" y2="250" stroke="#2878b8" stroke-width="1" opacity="0.5" stroke-dasharray="3 2"/>
<line x1="534" y1="382" x2="622" y2="442" stroke="#2878b8" stroke-width="1" opacity="0.5" stroke-dasharray="3 2"/>
<line x1="754" y1="258" x2="690" y2="230" stroke="#2878b8" stroke-width="1" opacity="0.5" stroke-dasharray="3 2"/>

<!-- Indicador nombre arriba monitor -->
<text x="780" y="72" text-anchor="end" font-family="-apple-system, sans-serif" font-size="8" fill="#404858">FlexScan EV3137-24</text>
<!-- LED azul monitor -->
<circle cx="842" cy="462" r="4" fill="#1858a8"/>
<circle cx="842" cy="462" r="2.5" fill="#2878d8"/>

</g>

<!-- SOPORTE MONITOR -->
<path d="M612,468 L668,468 L656,508 L624,508 Z" fill="#1e222a"/>
<ellipse cx="640" cy="510" rx="80" ry="12" fill="#181c24"/>
<ellipse cx="640" cy="510" rx="80" ry="12" fill="none" stroke="#222630" stroke-width="1.5"/>

<!-- TECLADO (perspectiva como en la foto) -->
<path d="M440,500 L780,492 L788,530 L448,538 Z" fill="url(#kbGrad)" stroke="#202428" stroke-width="1"/>
<path d="M444,504 L776,496 L782,524 L450,532 Z" fill="#1e222c"/>
<!-- Filas teclas -->
<rect x="452" y="507" width="8" height="5" rx="1" fill="#2a2e38"/>
<rect x="463" y="507" width="8" height="5" rx="1" fill="#2a2e38"/>
<rect x="474" y="507" width="8" height="5" rx="1" fill="#2a2e38"/>
<rect x="485" y="507" width="8" height="5" rx="1" fill="#2a2e38"/>
<rect x="496" y="507" width="8" height="5" rx="1" fill="#2a2e38"/>
<rect x="507" y="507" width="8" height="5" rx="1" fill="#2a2e38"/>
<rect x="518" y="506" width="8" height="5" rx="1" fill="#2a2e38"/>
<rect x="529" y="506" width="8" height="5" rx="1" fill="#2a2e38"/>
<rect x="540" y="506" width="8" height="5" rx="1" fill="#2a2e38"/>
<rect x="551" y="506" width="8" height="5" rx="1" fill="#2a2e38"/>
<rect x="562" y="505" width="8" height="5" rx="1" fill="#2a2e38"/>
<rect x="573" y="505" width="8" height="5" rx="1" fill="#2a2e38"/>
<rect x="584" y="505" width="8" height="5" rx="1" fill="#2a2e38"/>
<rect x="595" y="505" width="8" height="5" rx="1" fill="#2a2e38"/>
<rect x="606" y="504" width="8" height="5" rx="1" fill="#2a2e38"/>
<rect x="617" y="504" width="8" height="5" rx="1" fill="#2a2e38"/>
<rect x="628" y="504" width="8" height="5" rx="1" fill="#2a2e38"/>
<rect x="639" y="503" width="8" height="5" rx="1" fill="#2a2e38"/>
<rect x="650" y="503" width="8" height="5" rx="1" fill="#2a2e38"/>
<rect x="661" y="503" width="8" height="5" rx="1" fill="#2a2e38"/>
<rect x="452" y="516" width="200" height="5" rx="1" fill="#2a2e38"/>
<rect x="456" y="525" width="280" height="5" rx="2" fill="#2a2e38"/>

</svg>
