<svg width="100%" viewBox="0 0 820 680" xmlns="http://www.w3.org/2000/svg">
<title>Bomba Inyectora Antmed ImaStar - Flat Design</title>
<defs>
  <linearGradient id="bodyW" x1="0%" y1="0%" x2="100%" y2="100%">
    <stop offset="0%" stop-color="#f4f7fa"/>
    <stop offset="100%" stop-color="#dce4ec"/>
  </linearGradient>
  <linearGradient id="baseGrad" x1="0%" y1="0%" x2="0%" y2="100%">
    <stop offset="0%" stop-color="#dce4ec"/>
    <stop offset="100%" stop-color="#c0ccd8"/>
  </linearGradient>
  <linearGradient id="screenGrad" x1="0%" y1="0%" x2="100%" y2="100%">
    <stop offset="0%" stop-color="#1a6090"/>
    <stop offset="100%" stop-color="#0a3860"/>
  </linearGradient>
  <linearGradient id="contrastSyr" x1="0%" y1="0%" x2="0%" y2="100%">
    <stop offset="0%" stop-color="#e8d890"/>
    <stop offset="100%" stop-color="#c8b060"/>
  </linearGradient>
  <linearGradient id="salineSyr" x1="0%" y1="0%" x2="0%" y2="100%">
    <stop offset="0%" stop-color="#c8e8f8"/>
    <stop offset="100%" stop-color="#90c8e8"/>
  </linearGradient>
</defs>

<!-- PISO -->
<rect x="0" y="620" width="820" height="60" fill="#d8dde4"/>
<rect x="0" y="618" width="820" height="5" fill="#c0c8d0"/>
<!-- PARED -->
<rect x="0" y="0" width="820" height="622" fill="#f5f8fb"/>

<!-- ============================================================ -->
<!--              UNIDAD MÓVIL (IZQUIERDA)                       -->
<!-- ============================================================ -->

<!-- BASE CUADRADA (característica del Antmed) -->
<rect x="62" y="520" width="166" height="90" rx="10" fill="url(#baseGrad)" stroke="#b0bcc8" stroke-width="1.5"/>
<rect x="70" y="528" width="150" height="74" rx="7" fill="#dce6f0"/>
<!-- Detalle base -->
<rect x="78" y="536" width="134" height="58" rx="5" fill="#e8eef6"/>
<!-- Botón emergencia (rojo grande en la base) -->
<circle cx="145" cy="565" r="20" fill="#d01818"/>
<circle cx="145" cy="565" r="14" fill="#e82020"/>
<circle cx="145" cy="565" r="8" fill="#c01010"/>
<!-- Texto emergencia -->
<text x="145" y="598" text-anchor="middle" font-family="-apple-system, sans-serif" font-size="8" fill="#8898a8">EMERGENCIA</text>

<!-- Patas en X con ruedas grandes -->
<rect x="54" y="594" width="182" height="14" rx="4" fill="#b8c4d0"/>
<rect x="62" y="600" width="32" height="16" rx="4" fill="#a8b4c0"/>
<rect x="192" y="600" width="32" height="16" rx="4" fill="#a8b4c0"/>
<!-- Ruedas grandes (característica Antmed) -->
<circle cx="78" cy="618" r="14" fill="#606870"/>
<circle cx="78" cy="618" r="8" fill="#787e88"/>
<circle cx="78" cy="618" r="3" fill="#909898"/>
<circle cx="112" cy="622" r="14" fill="#606870"/>
<circle cx="112" cy="622" r="8" fill="#787e88"/>
<circle cx="112" cy="622" r="3" fill="#909898"/>
<circle cx="178" cy="618" r="14" fill="#606870"/>
<circle cx="178" cy="618" r="8" fill="#787e88"/>
<circle cx="178" cy="618" r="3" fill="#909898"/>
<circle cx="210" cy="622" r="14" fill="#606870"/>
<circle cx="210" cy="622" r="8" fill="#787e88"/>
<circle cx="210" cy="622" r="3" fill="#909898"/>

<!-- COLUMNA VERTICAL BLANCA -->
<rect x="132" y="108" width="26" height="418" rx="6" fill="#e8eef4" stroke="#ccd4de" stroke-width="1"/>
<rect x="137" y="112" width="14" height="410" rx="3" fill="#f0f4f8"/>
<!-- Riel -->
<rect x="143" y="112" width="4" height="410" rx="1" fill="#d0dce8"/>

<!-- BANDEJA CIRCULAR (característica Antmed) -->
<ellipse cx="145" cy="430" rx="68" ry="12" fill="#d0dce8" stroke="#b8c8d4" stroke-width="1"/>
<ellipse cx="145" cy="426" rx="68" ry="12" fill="#dce8f2" stroke="#c0d0dc" stroke-width="1"/>
<ellipse cx="145" cy="424" rx="64" ry="9" fill="#e8f0f8"/>
<!-- Soporte bandeja -->
<rect x="136" y="424" width="18" height="20" rx="3" fill="#c8d4de"/>

<!-- SOPORTE CABEZAL (donde se monta la bomba) -->
<rect x="118" y="100" width="54" height="20" rx="5" fill="#c0ccd8"/>
<rect x="122" y="104" width="46" height="12" rx="3" fill="#d0dce8"/>

<!-- ============================================================ -->
<!--              CABEZAL DUAL (cuerpo bomba)                    -->
<!-- ============================================================ -->

<!-- Cuerpo principal cabezal - forma redondeada arriba, cuadrada abajo -->
<rect x="88" y="44" width="114" height="120" rx="22" fill="url(#bodyW)" stroke="#c4d0da" stroke-width="1.5"/>
<rect x="94" y="50" width="102" height="108" rx="18" fill="#f6f9fc"/>

<!-- Franja superior azul claro (marca antmed) -->
<rect x="88" y="44" width="114" height="28" rx="22" fill="#c8dce8"/>
<rect x="88" y="60" width="114" height="12" fill="#c8dce8"/>
<!-- Logo -->
<text x="145" y="57" text-anchor="middle" font-family="-apple-system, sans-serif" font-size="9" font-weight="700" fill="#2a5878" letter-spacing="1">antmed</text>

<!-- PANTALLA PEQUEÑA cabezal -->
<rect x="104" y="76" width="82" height="40" rx="5" fill="#1a3050"/>
<rect x="107" y="79" width="76" height="34" rx="3" fill="#0e2038"/>
<!-- Barras jeringa en pantalla pequeña -->
<rect x="112" y="83" width="10" height="26" rx="2" fill="#1a4a20"/>
<rect x="112" y="97" width="10" height="12" rx="1" fill="#50c878"/>
<rect x="125" y="83" width="10" height="26" rx="2" fill="#1a3a60"/>
<rect x="125" y="91" width="10" height="18" rx="1" fill="#38bdf8"/>
<!-- Valores pantalla pequeña -->
<text x="142" y="90" font-family="monospace" font-size="6" fill="#e0c050">4.5</text>
<text x="158" y="90" font-family="monospace" font-size="5" fill="#7ee8ff">ml/s</text>
<text x="142" y="100" font-family="monospace" font-size="6" fill="#38bdf8">80</text>
<text x="158" y="100" font-family="monospace" font-size="5" fill="#7ee8ff">ml</text>
<text x="142" y="110" font-family="monospace" font-size="6" fill="#50c878">LISTO</text>

<!-- BOTONES cabezal (filas de botones amarillos/naranjas como en la foto) -->
<!-- Fila 1 -->
<circle cx="108" cy="128" r="6" fill="#e8a820"/>
<circle cx="108" cy="128" r="4" fill="#f0c030"/>
<circle cx="122" cy="128" r="6" fill="#e8a820"/>
<circle cx="122" cy="128" r="4" fill="#f0c030"/>
<circle cx="136" cy="128" r="6" fill="#e8a820"/>
<circle cx="136" cy="128" r="4" fill="#f0c030"/>
<circle cx="150" cy="128" r="6" fill="#e8a820"/>
<circle cx="150" cy="128" r="4" fill="#f0c030"/>
<circle cx="164" cy="128" r="6" fill="#e8a820"/>
<circle cx="164" cy="128" r="4" fill="#f0c030"/>
<!-- Fila 2 -->
<circle cx="108" cy="144" r="6" fill="#e8a820"/>
<circle cx="108" cy="144" r="4" fill="#f0c030"/>
<circle cx="122" cy="144" r="6" fill="#e8a820"/>
<circle cx="122" cy="144" r="4" fill="#f0c030"/>
<circle cx="136" cy="144" r="6" fill="#e8a820"/>
<circle cx="136" cy="144" r="4" fill="#f0c030"/>
<circle cx="150" cy="144" r="6" fill="#e8a820"/>
<circle cx="150" cy="144" r="4" fill="#f0c030"/>
<circle cx="164" cy="144" r="6" fill="#e8a820"/>
<circle cx="164" cy="144" r="4" fill="#f0c030"/>

<!-- Botón rojo grande (inyectar/parar) -->
<circle cx="136" cy="160" r="9" fill="#b01010"/>
<circle cx="136" cy="160" r="6" fill="#e02020"/>
<circle cx="136" cy="160" r="3" fill="#c01818"/>

<!-- ============================================================ -->
<!--        DOS CABEZAS DE JERINGA (cuelgan del cabezal)         -->
<!-- ============================================================ -->

<!-- Soporte izquierdo jeringa -->
<rect x="96" y="162" width="38" height="16" rx="5" fill="#d0dce8"/>
<rect x="100" y="164" width="30" height="10" rx="3" fill="#dce8f2"/>

<!-- Motor/cabezal izquierdo (circular, metálico) -->
<circle cx="115" cy="192" r="22" fill="#c8d4de" stroke="#a8b8c4" stroke-width="1.5"/>
<circle cx="115" cy="192" r="16" fill="#d8e4ec"/>
<circle cx="115" cy="192" r="10" fill="#c0ccd8"/>
<circle cx="115" cy="192" r="5" fill="#b0bcc8"/>
<!-- Tornillos -->
<circle cx="105" cy="182" r="3" fill="#a0acb8"/>
<circle cx="125" cy="182" r="3" fill="#a0acb8"/>
<circle cx="105" cy="202" r="3" fill="#a0acb8"/>
<circle cx="125" cy="202" r="3" fill="#a0acb8"/>

<!-- JERINGA CONTRASTE (cuelga del motor izquierdo) -->
<rect x="107" y="212" width="16" height="80" rx="4" fill="url(#contrastSyr)" stroke="#c0a040" stroke-width="1"/>
<rect x="109" y="214" width="12" height="60" rx="3" fill="#f0e0a0"/>
<!-- Líquido contraste -->
<rect x="110" y="215" width="10" height="45" rx="2" fill="#d4a830" opacity="0.8"/>
<!-- Escala -->
<line x1="107" y1="230" x2="123" y2="230" stroke="#b09030" stroke-width="0.8" opacity="0.5"/>
<line x1="107" y1="245" x2="123" y2="245" stroke="#b09030" stroke-width="0.8" opacity="0.5"/>
<line x1="107" y1="260" x2="123" y2="260" stroke="#b09030" stroke-width="0.8" opacity="0.5"/>
<!-- Punta jeringa -->
<path d="M111,290 L115,302 L119,290 Z" fill="#c0a030"/>
<!-- Etiqueta -->
<rect x="106" y="250" width="18" height="8" rx="1" fill="#c8a020" opacity="0.9"/>
<text x="115" y="257" text-anchor="middle" font-family="monospace" font-size="4" fill="#fff">CTR</text>

<!-- Soporte derecho jeringa -->
<rect x="156" y="162" width="38" height="16" rx="5" fill="#d0dce8"/>
<rect x="160" y="164" width="30" height="10" rx="3" fill="#dce8f2"/>

<!-- Motor/cabezal derecho -->
<circle cx="175" cy="192" r="22" fill="#c8d4de" stroke="#a8b8c4" stroke-width="1.5"/>
<circle cx="175" cy="192" r="16" fill="#d8e4ec"/>
<circle cx="175" cy="192" r="10" fill="#c0ccd8"/>
<circle cx="175" cy="192" r="5" fill="#b0bcc8"/>
<circle cx="165" cy="182" r="3" fill="#a0acb8"/>
<circle cx="185" cy="182" r="3" fill="#a0acb8"/>
<circle cx="165" cy="202" r="3" fill="#a0acb8"/>
<circle cx="185" cy="202" r="3" fill="#a0acb8"/>

<!-- JERINGA SUERO (cuelga del motor derecho) -->
<rect x="167" y="212" width="16" height="80" rx="4" fill="url(#salineSyr)" stroke="#70b0d0" stroke-width="1"/>
<rect x="169" y="214" width="12" height="60" rx="3" fill="#d8f0fc"/>
<!-- Líquido suero -->
<rect x="170" y="215" width="10" height="55" rx="2" fill="#90c8e8" opacity="0.7"/>
<!-- Escala -->
<line x1="167" y1="230" x2="183" y2="230" stroke="#4090b8" stroke-width="0.8" opacity="0.5"/>
<line x1="167" y1="245" x2="183" y2="245" stroke="#4090b8" stroke-width="0.8" opacity="0.5"/>
<line x1="167" y1="260" x2="183" y2="260" stroke="#4090b8" stroke-width="0.8" opacity="0.5"/>
<!-- Punta jeringa -->
<path d="M171,290 L175,302 L179,290 Z" fill="#70a8c8"/>
<!-- Etiqueta -->
<rect x="166" y="250" width="18" height="8" rx="1" fill="#2878a8" opacity="0.9"/>
<text x="175" y="257" text-anchor="middle" font-family="monospace" font-size="4" fill="#fff">SF</text>

<!-- GANCHOS IV arriba -->
<rect x="136" y="0" width="4" height="48" rx="2" fill="#c0ccd8"/>
<path d="M140,12 Q152,8 152,18 Q152,26 140,26" fill="none" stroke="#b0bcc8" stroke-width="3" stroke-linecap="round"/>
<path d="M136,12 Q124,8 124,18 Q124,26 136,26" fill="none" stroke="#b0bcc8" stroke-width="3" stroke-linecap="round"/>

<!-- ============================================================ -->
<!--              CONSOLA TÁCTIL (DERECHA)                       -->
<!-- ============================================================ -->

<!-- Base consola -->
<rect x="450" y="520" width="300" height="26" rx="6" fill="#c8d4de"/>
<rect x="460" y="514" width="280" height="18" rx="5" fill="#d8e4ec"/>
<!-- Soporte inclinado consola -->
<path d="M480,514 L520,390 L580,390 L580,514 Z" fill="#dce8f2"/>
<path d="M478,514 L518,392 L524,392 L484,514 Z" fill="#c8d8e8" opacity="0.5"/>

<!-- Cuerpo consola (tablet grande redondeada) -->
<rect x="418" y="340" width="364" height="262" rx="20" fill="url(#bodyW)" stroke="#c0ccd8" stroke-width="2"/>
<rect x="426" y="348" width="348" height="246" rx="16" fill="#f6f9fc"/>

<!-- Marco superior consola -->
<rect x="418" y="340" width="364" height="36" rx="20" fill="#d8e4ec"/>
<rect x="418" y="362" width="364" height="14" fill="#d8e4ec"/>
<!-- Logo ImaStar -->
<circle cx="438" cy="356" r="6" fill="#e02020"/>
<text x="460" y="360" font-family="-apple-system, sans-serif" font-size="11" font-weight="700" fill="#2a4060" letter-spacing="0.5">imaStar</text>

<!-- PANTALLA TÁCTIL GRANDE -->
<rect x="432" y="360" width="296" height="194" rx="6" fill="url(#screenGrad)"/>
<rect x="436" y="364" width="288" height="186" rx="4" fill="#0e3858"/>

<!-- Panel izquierdo pantalla - jeringas visualizadas -->
<rect x="440" y="368" width="88" height="174" rx="3" fill="#0a2840"/>
<!-- Jeringa A visual -->
<rect x="448" y="374" width="22" height="110" rx="4" fill="#1a3858"/>
<rect x="450" y="376" width="18" height="80" rx="3" fill="#1e5a20"/>
<rect x="450" y="376" width="18" height="60" rx="3" fill="#50c878"/>
<text x="459" y="500" text-anchor="middle" font-family="monospace" font-size="7" fill="#e0c050">A</text>
<text x="459" y="510" text-anchor="middle" font-family="monospace" font-size="6" fill="#c8a030">200</text>
<!-- Jeringa B visual -->
<rect x="478" y="374" width="22" height="110" rx="4" fill="#1a3858"/>
<rect x="480" y="376" width="18" height="80" rx="3" fill="#1a3a60"/>
<rect x="480" y="376" width="18" height="55" rx="3" fill="#38bdf8"/>
<text x="489" y="500" text-anchor="middle" font-family="monospace" font-size="7" fill="#38bdf8">B</text>
<text x="489" y="510" text-anchor="middle" font-family="monospace" font-size="6" fill="#2890c0">200</text>

<!-- Panel central pantalla - valores principales -->
<rect x="530" y="368" width="110" height="174" rx="3" fill="#0a2840"/>
<!-- Valor flujo grande -->
<text x="585" y="396" text-anchor="middle" font-family="-apple-system, sans-serif" font-size="8" fill="#7ee8ff" opacity="0.7">流量  ml/s</text>
<rect x="538" y="400" width="94" height="42" rx="4" fill="#0e1828"/>
<text x="585" y="430" text-anchor="middle" font-family="-apple-system, sans-serif" font-size="32" font-weight="800" fill="#c8f060">1.0</text>
<!-- Valor volumen -->
<text x="585" y="452" text-anchor="middle" font-family="-apple-system, sans-serif" font-size="8" fill="#7ee8ff" opacity="0.7">容量  ml</text>
<rect x="538" y="456" width="94" height="28" rx="4" fill="#0e1828"/>
<text x="585" y="474" text-anchor="middle" font-family="-apple-system, sans-serif" font-size="20" font-weight="700" fill="#ffffff">1</text>
<!-- Indicador play -->
<polygon points="636,422 650,432 636,442" fill="#50c878"/>
<!-- Presión -->
<text x="585" y="494" text-anchor="middle" font-family="monospace" font-size="7" fill="#7ee8ff">压力限制</text>
<rect x="538" y="498" width="94" height="32" rx="4" fill="#0e1828"/>
<text x="570" y="522" text-anchor="middle" font-family="-apple-system, sans-serif" font-size="22" font-weight="800" fill="#e0c050">325</text>
<text x="610" y="522" font-family="monospace" font-size="8" fill="#a09030">psi</text>

<!-- Panel derecho pantalla - botones táctiles -->
<rect x="642" y="368" width="78" height="174" rx="3" fill="#0a2840"/>
<!-- Botones táctiles amarillo/verde -->
<rect x="648" y="374" width="64" height="22" rx="5" fill="#c8a820"/>
<text x="680" y="388" text-anchor="middle" font-family="monospace" font-size="7" fill="#fff">保存</text>
<rect x="648" y="400" width="64" height="22" rx="5" fill="#2878a8"/>
<text x="680" y="414" text-anchor="middle" font-family="monospace" font-size="7" fill="#fff">元就绪</text>
<rect x="648" y="426" width="64" height="22" rx="5" fill="#c8a820"/>
<text x="680" y="440" text-anchor="middle" font-family="monospace" font-size="7" fill="#fff">设置</text>
<rect x="648" y="452" width="64" height="22" rx="5" fill="#2878a8"/>
<text x="680" y="466" text-anchor="middle" font-family="monospace" font-size="7" fill="#fff">返回</text>
<rect x="648" y="478" width="64" height="22" rx="5" fill="#c8a820"/>
<text x="680" y="492" text-anchor="middle" font-family="monospace" font-size="7" fill="#fff">备案</text>
<rect x="648" y="504" width="64" height="22" rx="5" fill="#2878a8"/>
<text x="680" y="518" text-anchor="middle" font-family="monospace" font-size="7" fill="#fff">设置</text>

<!-- Barra inferior pantalla -->
<rect x="436" y="542" width="288" height="14" rx="2" fill="#0a2030"/>
<text x="460" y="552" font-family="monospace" font-size="6" fill="#5aa8c8">控制  设置  历史</text>
<text x="590" y="552" font-family="monospace" font-size="6" fill="#7ee8ff">00:01</text>
<text x="680" y="552" font-family="monospace" font-size="6" fill="#7ee8ff">1</text>

<!-- Botones físicos debajo pantalla -->
<rect x="432" y="560" width="296" height="32" rx="5" fill="#e0eaf2"/>
<rect x="444" y="566" width="60" height="18" rx="5" fill="#c8d8e4"/>
<text x="474" y="578" text-anchor="middle" font-family="-apple-system, sans-serif" font-size="8" fill="#4a6878">显控</text>
<rect x="512" y="566" width="60" height="18" rx="5" fill="#c8d8e4"/>
<text x="542" y="578" text-anchor="middle" font-family="-apple-system, sans-serif" font-size="8" fill="#4a6878">设置</text>
<rect x="580" y="566" width="60" height="18" rx="5" fill="#c8d8e4"/>
<text x="610" y="578" text-anchor="middle" font-family="-apple-system, sans-serif" font-size="8" fill="#4a6878">历史</text>

<!-- Logo antmed inferior -->
<text x="600" y="612" text-anchor="middle" font-family="-apple-system, sans-serif" font-size="13" font-weight="700" fill="#2a5878" letter-spacing="1">antmed</text>

<!-- CABLE ESPIRAL (característica ImaStar) -->
<path d="M782,480 Q800,480 806,490 Q812,500 800,506 Q788,512 792,522 Q796,532 808,534 Q820,536 816,548 Q812,560 800,562 Q788,564 790,574 Q792,584 804,586" fill="none" stroke="#2a3848" stroke-width="5" stroke-linecap="round"/>
<!-- Handset / control remoto -->
<rect x="790" y="582" width="28" height="52" rx="10" fill="#d0dce8" stroke="#b0bcc8" stroke-width="1.5"/>
<rect x="794" y="586" width="20" height="36" rx="7" fill="#e0eaf2"/>
<circle cx="804" cy="598" r="5" fill="#e02020"/>
<rect x="796" y="608" width="16" height="6" rx="2" fill="#b0bcc8"/>
<rect x="796" y="618" width="16" height="6" rx="2" fill="#b0bcc8"/>

<!-- Etiquetas -->
<text x="145" y="650" text-anchor="middle" font-family="-apple-system, sans-serif" font-size="12" font-weight="700" fill="#8898a8">Unidad Inyectora</text>
<text x="600" y="650" text-anchor="middle" font-family="-apple-system, sans-serif" font-size="12" font-weight="700" fill="#8898a8">Consola Táctil</text>

</svg>
