<svg width="100%" viewBox="0 0 900 560" xmlns="http://www.w3.org/2000/svg">
<title>Densitómetro Óseo DXA - Flat Design</title>
<defs>
  <linearGradient id="tableGrad" x1="0%" y1="0%" x2="0%" y2="100%">
    <stop offset="0%" stop-color="#e8edf4"/>
    <stop offset="100%" stop-color="#ccd4de"/>
  </linearGradient>
  <linearGradient id="armGrad" x1="0%" y1="0%" x2="100%" y2="0%">
    <stop offset="0%" stop-color="#b8c4d0"/>
    <stop offset="100%" stop-color="#d8e0ea"/>
  </linearGradient>
  <linearGradient id="bodyGrad" x1="0%" y1="0%" x2="0%" y2="100%">
    <stop offset="0%" stop-color="#dce2ea"/>
    <stop offset="100%" stop-color="#c8d0da"/>
  </linearGradient>
  <clipPath id="screenClip">
    <rect x="584" y="142" width="200" height="200" rx="4"/>
  </clipPath>
</defs>

<!-- PISO -->
<rect x="0" y="480" width="900" height="80" fill="#d8dde4"/>
<rect x="0" y="478" width="900" height="6" fill="#c0c8d0"/>

<!-- PARED -->
<rect x="0" y="0" width="900" height="482" fill="#f2f5f8"/>
<rect x="0" y="470" width="900" height="12" fill="#e0e6ec"/>

<!-- ===================== MESA PRINCIPAL DXA ===================== -->
<!-- La densitometría tiene una mesa LARGA y PLANA, muy característica -->

<!-- Sombra mesa -->
<ellipse cx="370" cy="476" rx="310" ry="10" fill="#a8b4c0" opacity="0.25"/>

<!-- Estructura base (pedestal central bajo) -->
<rect x="180" y="418" width="400" height="56" rx="8" fill="#b0bcc8"/>
<rect x="196" y="418" width="368" height="16" rx="4" fill="#c0ccd8"/>
<!-- Patas base -->
<rect x="188" y="446" width="52" height="32" rx="5" fill="#a0acb8"/>
<rect x="520" y="446" width="52" height="32" rx="5" fill="#a0acb8"/>
<!-- Ruedas -->
<circle cx="204" cy="478" r="9" fill="#788090"/>
<circle cx="204" cy="478" r="5" fill="#8a92a2"/>
<circle cx="240" cy="478" r="9" fill="#788090"/>
<circle cx="240" cy="478" r="5" fill="#8a92a2"/>
<circle cx="536" cy="478" r="9" fill="#788090"/>
<circle cx="536" cy="478" r="5" fill="#8a92a2"/>
<circle cx="572" cy="478" r="9" fill="#788090"/>
<circle cx="572" cy="478" r="5" fill="#8a92a2"/>

<!-- Cuerpo de la mesa (largo y plano) -->
<rect x="108" y="350" width="560" height="72" rx="10" fill="url(#bodyGrad)" stroke="#b8c4ce" stroke-width="1"/>
<rect x="116" y="356" width="544" height="60" rx="8" fill="#dce4ec"/>

<!-- Superficie mesa / colchoneta -->
<rect x="112" y="338" width="552" height="20" rx="7" fill="#7ecece"/>
<rect x="112" y="338" width="552" height="7" rx="7" fill="#9adada" opacity="0.7"/>
<rect x="112" y="350" width="552" height="5" fill="#5ab0b0"/>

<!-- Almohada cabecera -->
<rect x="112" y="328" width="72" height="16" rx="8" fill="#e8f4f4"/>
<rect x="116" y="330" width="64" height="8" rx="4" fill="#f0f8f8"/>

<!-- Paciente acostado (silueta) -->
<!-- Cabeza -->
<ellipse cx="160" cy="334" rx="22" ry="18" fill="#e8c890"/>
<!-- Pelo -->
<ellipse cx="160" cy="320" rx="20" ry="10" fill="#5a3a1a"/>
<rect x="140" y="318" width="40" height="8" rx="4" fill="#5a3a1a"/>
<!-- Cuerpo -->
<rect x="180" y="328" width="200" height="18" rx="5" fill="#e0c888"/>
<!-- Brazo a lo largo -->
<rect x="178" y="342" width="190" height="10" rx="4" fill="#d8c080"/>
<!-- Piernas -->
<rect x="378" y="328" width="180" height="10" rx="4" fill="#e0c888"/>
<rect x="378" y="338" width="180" height="10" rx="4" fill="#d8c080"/>
<!-- Sábana encima -->
<rect x="188" y="326" width="360" height="20" rx="4" fill="#f0f4f8" opacity="0.7"/>

<!-- ===================== BRAZO DETECTOR / GANTRY ===================== -->
<!-- El DXA tiene un brazo en C que se mueve sobre la mesa -->

<!-- Columna vertical del gantry (lado derecho de la mesa) -->
<rect x="630" y="140" width="52" height="278" rx="8" fill="#c8d4de"/>
<rect x="638" y="148" width="36" height="262" rx="5" fill="#d8e4ec"/>
<!-- Riel del gantry -->
<rect x="652" y="148" width="10" height="262" rx="3" fill="#c0ccd8"/>
<!-- Highlight -->
<rect x="640" y="148" width="6" height="262" rx="2" fill="#e8f0f6" opacity="0.5"/>

<!-- Brazo horizontal superior (se extiende sobre la mesa) -->
<rect x="108" y="148" width="526" height="34" rx="8" fill="url(#armGrad)" stroke="#b0bcc8" stroke-width="1"/>
<rect x="116" y="154" width="510" height="22" rx="5" fill="#d0dce8"/>
<!-- Riel interior del brazo -->
<rect x="116" y="162" width="510" height="6" rx="2" fill="#c0ccd8"/>

<!-- Cabeza detectora superior (fuente RX) -->
<rect x="304" y="112" width="72" height="40" rx="8" fill="#2a3848"/>
<rect x="308" y="116" width="64" height="32" rx="5" fill="#1a2838"/>
<!-- Ventana detector -->
<rect x="314" y="120" width="52" height="20" rx="3" fill="#0e1828"/>
<!-- Líneas detector -->
<line x1="340" y1="120" x2="340" y2="140" stroke="#38bdf8" stroke-width="1.5" opacity="0.5"/>
<line x1="314" y1="130" x2="366" y2="130" stroke="#38bdf8" stroke-width="1.5" opacity="0.5"/>
<!-- LED verde -->
<circle cx="356" cy="122" r="4" fill="#50c878"/>
<circle cx="356" cy="122" r="2.5" fill="#7eeaa0"/>

<!-- Haz RX (desde arriba hacia la mesa) -->
<polygon points="340,152 318,338 362,338" fill="#f0f060" opacity="0.07"/>

<!-- Cabeza detectora inferior (detector, debajo de la mesa) -->
<rect x="308" y="418" width="64" height="32" rx="8" fill="#3a4858"/>
<rect x="312" y="422" width="56" height="24" rx="5" fill="#2a3848"/>
<rect x="316" y="426" width="48" height="16" rx="3" fill="#1e2e3e"/>
<!-- LED detector -->
<circle cx="352" cy="430" r="4" fill="#38bdf8"/>
<circle cx="352" cy="430" r="2.5" fill="#7ee8ff"/>

<!-- Conector/cable entre brazo y columna -->
<rect x="630" y="154" width="8" height="24" rx="2" fill="#b0bcc8"/>

<!-- ===================== PANEL DE CONTROL EN BRAZO ===================== -->
<rect x="460" y="136" width="64" height="48" rx="6" fill="#c0ccd8"/>
<rect x="464" y="140" width="56" height="36" rx="4" fill="#1a2838"/>
<rect x="467" y="143" width="46" height="3" rx="1" fill="#38bdf8" opacity="0.9"/>
<rect x="467" y="148" width="34" height="3" rx="1" fill="#38bdf8" opacity="0.6"/>
<rect x="467" y="153" width="40" height="3" rx="1" fill="#22d3ee" opacity="0.7"/>
<rect x="467" y="158" width="26" height="3" rx="1" fill="#38bdf8" opacity="0.5"/>
<rect x="467" y="163" width="36" height="3" rx="1" fill="#38bdf8" opacity="0.4"/>
<circle cx="472" cy="176" r="4" fill="#e05050"/>
<circle cx="483" cy="176" r="4" fill="#e0c050"/>
<circle cx="494" cy="176" r="4" fill="#50c878"/>
<circle cx="505" cy="176" r="4" fill="#38bdf8"/>

<!-- ===================== MONITOR / WORKSTATION ===================== -->
<!-- Escritorio workstation -->
<rect x="566" y="390" width="230" height="92" rx="6" fill="#8b5e3c"/>
<rect x="556" y="384" width="250" height="16" rx="4" fill="#a06840"/>
<rect x="566" y="468" width="230" height="14" rx="4" fill="#6a4828"/>

<!-- Soporte monitor -->
<rect x="666" y="310" width="14" height="80" rx="4" fill="#b0bcc8"/>
<rect x="648" y="388" width="50" height="10" rx="3" fill="#a8b4c0"/>

<!-- Monitor principal -->
<rect x="574" y="128" width="218" height="188" rx="8" fill="#b8c4ce"/>
<rect x="580" y="134" width="206" height="172" rx="5" fill="#1a2838"/>

<!-- ===== IMAGEN DXA EN PANTALLA ===== -->
<rect x="584" y="138" width="198" height="196" rx="3" fill="#080e18"/>

<!-- Fondo imagen densitometría -->
<rect x="584" y="138" width="198" height="196" rx="3" fill="#050a12"/>

<!-- Silueta esqueleto completo (vista AP - densitometría cuerpo total) -->
<!-- Cráneo -->
<ellipse cx="683" cy="158" rx="16" ry="14" fill="#2a4060" opacity="0.9"/>
<ellipse cx="683" cy="158" rx="11" ry="10" fill="#3a5478" opacity="0.8"/>

<!-- Columna vertebral -->
<rect x="680" y="170" width="6" height="90" rx="2" fill="#2a4060"/>
<!-- Vértebras individuales -->
<rect x="677" y="172" width="12" height="7" rx="1" fill="#3a5478"/>
<rect x="677" y="182" width="12" height="7" rx="1" fill="#3a5478"/>
<rect x="677" y="192" width="12" height="7" rx="1" fill="#3a5478"/>
<rect x="677" y="202" width="12" height="7" rx="1" fill="#3a5478"/>
<rect x="677" y="212" width="12" height="7" rx="1" fill="#3a5478"/>
<rect x="677" y="222" width="12" height="7" rx="1" fill="#3a5478"/>

<!-- Caja torácica -->
<!-- Costillas derecha -->
<path d="M683,178 Q700,182 702,192 Q700,198 683,198" fill="none" stroke="#3a5478" stroke-width="2.5"/>
<path d="M683,186 Q704,190 706,202 Q704,208 683,208" fill="none" stroke="#3a5478" stroke-width="2"/>
<path d="M683,194 Q702,198 704,210 Q702,216 683,216" fill="none" stroke="#3a5478" stroke-width="2"/>
<path d="M683,202 Q700,206 702,216 Q700,222 683,222" fill="none" stroke="#2a4060" stroke-width="1.5"/>
<!-- Costillas izquierda -->
<path d="M683,178 Q666,182 664,192 Q666,198 683,198" fill="none" stroke="#3a5478" stroke-width="2.5"/>
<path d="M683,186 Q662,190 660,202 Q662,208 683,208" fill="none" stroke="#3a5478" stroke-width="2"/>
<path d="M683,194 Q664,198 662,210 Q664,216 683,216" fill="none" stroke="#3a5478" stroke-width="2"/>
<path d="M683,202 Q666,206 664,216 Q666,222 683,222" fill="none" stroke="#2a4060" stroke-width="1.5"/>

<!-- Esternón -->
<rect x="680" y="172" width="6" height="56" rx="2" fill="#2a4878" opacity="0.6"/>

<!-- Clavículas -->
<path d="M683,172 Q696,168 704,170" fill="none" stroke="#3a5878" stroke-width="3"/>
<path d="M683,172 Q670,168 662,170" fill="none" stroke="#3a5878" stroke-width="3"/>

<!-- Hombros / escápulas -->
<ellipse cx="708" cy="176" rx="8" ry="10" fill="#2a4060" opacity="0.8"/>
<ellipse cx="658" cy="176" rx="8" ry="10" fill="#2a4060" opacity="0.8"/>

<!-- Húmeros (brazos) -->
<rect x="712" y="182" width="7" height="50" rx="3" fill="#2a4060"/>
<rect x="647" y="182" width="7" height="50" rx="3" fill="#2a4060"/>
<!-- Codo / radio-cúbito -->
<rect x="714" y="232" width="5" height="40" rx="2" fill="#2a4060" opacity="0.8"/>
<rect x="718" y="232" width="4" height="40" rx="2" fill="#1a3050" opacity="0.7"/>
<rect x="645" y="232" width="5" height="40" rx="2" fill="#2a4060" opacity="0.8"/>
<rect x="641" y="232" width="4" height="40" rx="2" fill="#1a3050" opacity="0.7"/>

<!-- Pelvis (zona más densa, muy blanca en DXA) -->
<ellipse cx="683" cy="268" rx="26" ry="18" fill="#1e3868" opacity="0.9"/>
<ellipse cx="683" cy="268" rx="20" ry="12" fill="#2a4878" opacity="0.8"/>
<ellipse cx="683" cy="268" rx="10" ry="8" fill="#3a5888" opacity="0.7"/>
<!-- Sacro -->
<rect x="679" y="258" width="8" height="20" rx="2" fill="#3a5888"/>

<!-- Fémures -->
<rect x="672" y="284" width="8" height="55" rx="3" fill="#2a4060"/>
<rect x="689" y="284" width="8" height="55" rx="3" fill="#2a4060"/>
<!-- Cabezas femorales -->
<circle cx="676" cy="284" r="6" fill="#3a5478"/>
<circle cx="693" cy="284" r="6" fill="#3a5478"/>

<!-- Tibia/peroné -->
<rect x="673" y="338" width="5" height="42" rx="2" fill="#2a4060" opacity="0.9"/>
<rect x="678" y="338" width="4" height="42" rx="2" fill="#1a3050" opacity="0.7"/>
<rect x="690" y="338" width="5" height="42" rx="2" fill="#2a4060" opacity="0.9"/>
<rect x="695" y="338" width="4" height="42" rx="2" fill="#1a3050" opacity="0.7"/>

<!-- Pies -->
<ellipse cx="678" cy="382" rx="8" ry="5" fill="#2a4060" opacity="0.8"/>
<ellipse cx="695" cy="382" rx="8" ry="5" fill="#2a4060" opacity="0.8"/>

<!-- Zona resaltada cadera (ROI - region of interest, en DXA siempre se marca) -->
<rect x="660" y="258" width="46" height="36" rx="4" fill="none" stroke="#38bdf8" stroke-width="1.5" stroke-dasharray="4 2" opacity="0.8"/>
<!-- Zona columna lumbar ROI -->
<rect x="674" y="194" width="18" height="38" rx="3" fill="none" stroke="#ff80ab" stroke-width="1.5" stroke-dasharray="4 2" opacity="0.8"/>

<!-- Etiquetas en pantalla -->
<text x="588" y="150" font-family="monospace" font-size="7" fill="#7ee8ff" opacity="0.9">TOTAL BODY DXA</text>
<text x="588" y="158" font-family="monospace" font-size="6" fill="#5ab8d0" opacity="0.7">BMD: 0.924 g/cm²</text>
<text x="588" y="164" font-family="monospace" font-size="6" fill="#5ab8d0" opacity="0.7">T-score: -1.2</text>
<text x="664" y="258" font-family="monospace" font-size="5" fill="#38bdf8" opacity="0.7">HIP</text>
<text x="666" y="196" font-family="monospace" font-size="5" fill="#ff80ab" opacity="0.7">L2-L4</text>

<!-- Barra de densidad (escala de grises) -->
<rect x="588" y="318" width="12" height="12" rx="1" fill="#3a5478"/>
<rect x="602" y="318" width="12" height="12" rx="1" fill="#2a4060"/>
<rect x="616" y="318" width="12" height="12" rx="1" fill="#1a2a48"/>
<rect x="630" y="318" width="12" height="12" rx="1" fill="#0e1828"/>
<text x="588" y="338" font-family="monospace" font-size="5" fill="#5ab8d0" opacity="0.6">LOW    HIGH BMD</text>

<!-- Botones monitor -->
<rect x="580" y="320" width="206" height="10" rx="3" fill="#b0bcc8"/>
<circle cx="596" cy="325" r="4" fill="#50c878"/>
<circle cx="609" cy="325" r="4" fill="#e0e0e0"/>
<rect x="720" y="320" width="56" height="10" rx="3" fill="#a0acb8"/>

<!-- Teclado workstation -->
<rect x="560" y="402" width="240" height="48" rx="5" fill="#c0ccd8"/>
<rect x="564" y="406" width="232" height="40" rx="3" fill="#b0bcc8"/>
<!-- Filas teclas -->
<rect x="568" y="410" width="8" height="6" rx="1" fill="#9aa8b4"/>
<rect x="579" y="410" width="8" height="6" rx="1" fill="#9aa8b4"/>
<rect x="590" y="410" width="8" height="6" rx="1" fill="#9aa8b4"/>
<rect x="601" y="410" width="8" height="6" rx="1" fill="#9aa8b4"/>
<rect x="612" y="410" width="8" height="6" rx="1" fill="#9aa8b4"/>
<rect x="623" y="410" width="8" height="6" rx="1" fill="#9aa8b4"/>
<rect x="634" y="410" width="8" height="6" rx="1" fill="#9aa8b4"/>
<rect x="645" y="410" width="8" height="6" rx="1" fill="#9aa8b4"/>
<rect x="656" y="410" width="8" height="6" rx="1" fill="#9aa8b4"/>
<rect x="667" y="410" width="8" height="6" rx="1" fill="#9aa8b4"/>
<rect x="678" y="410" width="8" height="6" rx="1" fill="#9aa8b4"/>
<rect x="689" y="410" width="8" height="6" rx="1" fill="#9aa8b4"/>
<rect x="700" y="410" width="8" height="6" rx="1" fill="#9aa8b4"/>
<rect x="711" y="410" width="8" height="6" rx="1" fill="#9aa8b4"/>
<rect x="722" y="410" width="8" height="6" rx="1" fill="#9aa8b4"/>
<rect x="568" y="420" width="220" height="6" rx="2" fill="#9aa8b4"/>
<rect x="568" y="430" width="100" height="6" rx="2" fill="#9aa8b4"/>
<rect x="676" y="430" width="112" height="6" rx="2" fill="#9aa8b4"/>
<rect x="600" y="440" width="160" height="6" rx="3" fill="#9aa8b4"/>

<!-- Mouse -->
<rect x="806" y="408" width="32" height="42" rx="10" fill="#b8c4ce"/>
<rect x="808" y="408" width="28" height="20" rx="10" fill="#c8d4de"/>
<line x1="822" y1="408" x2="822" y2="428" stroke="#a8b4be" stroke-width="1.5"/>
<rect x="820" y="412" width="4" height="8" rx="2" fill="#88a0b0"/>

<!-- ===================== ETIQUETAS ===================== -->
<text x="380" y="508" text-anchor="middle" font-family="-apple-system, sans-serif" font-size="13" font-weight="700" fill="#8898a8" letter-spacing="1">Densitómetro Óseo DXA</text>
<text x="683" y="508" text-anchor="middle" font-family="-apple-system, sans-serif" font-size="11" font-weight="600" fill="#8898a8">Workstation</text>

<!-- Marca GE / Hologic estilo -->
<text x="638" y="168" font-family="-apple-system, sans-serif" font-size="9" font-weight="700" fill="#8898a8" letter-spacing="1">HOLOGIC</text>

</svg>
