<svg width="100%" viewBox="0 0 900 580" xmlns="http://www.w3.org/2000/svg">
<title>Ortopantomógrafo Flat Design</title>
<defs>
  <linearGradient id="colGrad" x1="0%" y1="0%" x2="100%" y2="0%">
    <stop offset="0%" stop-color="#c8d4de"/>
    <stop offset="100%" stop-color="#dce4ec"/>
  </linearGradient>
  <linearGradient id="armGrad" x1="0%" y1="0%" x2="100%" y2="0%">
    <stop offset="0%" stop-color="#b8c8d4"/>
    <stop offset="100%" stop-color="#d0dce8"/>
  </linearGradient>
  <clipPath id="panClip">
    <rect x="554" y="138" width="240" height="148" rx="4"/>
  </clipPath>
</defs>

<!-- PISO -->
<rect x="0" y="490" width="900" height="90" fill="#d8dde4"/>
<rect x="0" y="488" width="900" height="6" fill="#c0c8d0"/>

<!-- PARED -->
<rect x="0" y="0" width="900" height="492" fill="#f2f5f8"/>
<rect x="0" y="480" width="900" height="12" fill="#e0e6ec"/>

<!-- ===================== COLUMNA CENTRAL ===================== -->
<!-- Base columna -->
<rect x="268" y="430" width="80" height="62" rx="6" fill="#b0bcc8"/>
<rect x="276" y="430" width="64" height="14" rx="3" fill="#c0ccd8"/>
<!-- Patas en estrella (característica OPG) -->
<rect x="224" y="464" width="168" height="18" rx="5" fill="#a0acb8"/>
<rect x="296" y="442" width="24" height="52" rx="4" fill="#a8b4c0"/>
<!-- Ruedas en las 4 puntas -->
<circle cx="232" cy="482" r="9" fill="#788090"/>
<circle cx="232" cy="482" r="5" fill="#8a92a2"/>
<circle cx="384" cy="482" r="9" fill="#788090"/>
<circle cx="384" cy="482" r="5" fill="#8a92a2"/>
<circle cx="308" cy="488" r="9" fill="#788090"/>
<circle cx="308" cy="488" r="5" fill="#8a92a2"/>

<!-- Columna vertical principal -->
<rect x="286" y="100" width="44" height="334" rx="6" fill="url(#colGrad)"/>
<rect x="294" y="108" width="28" height="318" rx="4" fill="#dce8f0"/>
<!-- Riel -->
<rect x="304" y="108" width="8" height="318" rx="2" fill="#c0ccd8"/>
<!-- Highlight -->
<rect x="296" y="108" width="5" height="318" rx="2" fill="#eef4f8" opacity="0.5"/>

<!-- ===================== BRAZO EN C ROTATORIO ===================== -->
<!-- El OPG tiene un brazo en C que ROTA 360° alrededor de la cabeza del paciente -->

<!-- Brazo superior (va hacia la derecha) -->
<rect x="326" y="108" width="200" height="28" rx="7" fill="url(#armGrad)" stroke="#b0bcc4" stroke-width="1"/>
<rect x="332" y="114" width="188" height="16" rx="4" fill="#d0dce8"/>

<!-- Cabeza del tubo RX (lado derecho arriba) -->
<rect x="516" y="88" width="72" height="62" rx="10" fill="#2a3848"/>
<rect x="522" y="94" width="60" height="50" rx="7" fill="#1a2838"/>
<!-- Ventana colimador -->
<rect x="528" y="100" width="48" height="32" rx="4" fill="#0e1828"/>
<!-- Cruz colimador -->
<line x1="552" y1="100" x2="552" y2="132" stroke="#38bdf8" stroke-width="1.5" opacity="0.5"/>
<line x1="528" y1="116" x2="576" y2="116" stroke="#38bdf8" stroke-width="1.5" opacity="0.5"/>
<!-- LED tubo -->
<circle cx="570" cy="96" r="4" fill="#50c878"/>
<circle cx="570" cy="96" r="2.5" fill="#7eeaa0"/>

<!-- Brazo inferior (va hacia la derecha también, más abajo) -->
<rect x="326" y="240" width="180" height="28" rx="7" fill="url(#armGrad)" stroke="#b0bcc4" stroke-width="1"/>
<rect x="332" y="246" width="168" height="16" rx="4" fill="#d0dce8"/>

<!-- Detector digital / sensor (lado derecho abajo) -->
<rect x="500" y="238" width="66" height="90" rx="8" fill="#3a4858"/>
<rect x="506" y="244" width="54" height="78" rx="5" fill="#2a3848"/>
<!-- Área activa detector -->
<rect x="510" y="248" width="46" height="70" rx="3" fill="#1e2e3e"/>
<!-- Grilla detector -->
<line x1="523" y1="248" x2="523" y2="318" stroke="#3a5878" stroke-width="1" opacity="0.5"/>
<line x1="536" y1="248" x2="536" y2="318" stroke="#3a5878" stroke-width="1" opacity="0.5"/>
<line x1="549" y1="248" x2="549" y2="318" stroke="#3a5878" stroke-width="1" opacity="0.5"/>
<line x1="510" y1="265" x2="556" y2="265" stroke="#3a5878" stroke-width="1" opacity="0.5"/>
<line x1="510" y1="283" x2="556" y2="283" stroke="#3a5878" stroke-width="1" opacity="0.5"/>
<line x1="510" y1="301" x2="556" y2="301" stroke="#3a5878" stroke-width="1" opacity="0.5"/>
<!-- LED detector -->
<circle cx="544" cy="250" r="4" fill="#38bdf8"/>
<circle cx="544" cy="250" r="2.5" fill="#7ee8ff"/>

<!-- Conector brazo C con columna -->
<rect x="286" y="106" width="44" height="34" rx="4" fill="#b8c4d0"/>

<!-- ===================== SOPORTE CABEZA PACIENTE ===================== -->
<!-- El OPG tiene un sistema de posicionamiento muy específico -->

<!-- Mentonera (apoya el mentón) -->
<rect x="332" y="282" width="80" height="12" rx="5" fill="#e0eaf2"/>
<rect x="336" y="284" width="72" height="6" rx="3" fill="#eef4f8"/>
<rect x="332" y="290" width="80" height="5" rx="2" fill="#c8d8e4"/>
<!-- Soporte mentonera -->
<rect x="362" y="290" width="20" height="40" rx="4" fill="#c8d4de"/>
<rect x="366" y="292" width="12" height="36" rx="3" fill="#d8e4ec"/>

<!-- Posicionador de cabeza (mordida) -->
<rect x="348" y="278" width="48" height="8" rx="3" fill="#f0e8d0"/>
<rect x="352" y="280" width="40" height="4" rx="2" fill="#f8f0e0"/>

<!-- Topes laterales cabeza (para inmovilizar) -->
<rect x="318" y="230" width="14" height="70" rx="5" fill="#c0ccd8" stroke="#a8b8c4" stroke-width="1"/>
<rect x="320" y="234" width="10" height="62" rx="3" fill="#d0dce8"/>
<rect x="412" y="230" width="14" height="70" rx="5" fill="#c0ccd8" stroke="#a8b8c4" stroke-width="1"/>
<rect x="414" y="234" width="10" height="62" rx="3" fill="#d0dce8"/>

<!-- Tope frontal frente (mordida acrílica) -->
<rect x="346" y="270" width="52" height="14" rx="4" fill="#dce8f4"/>
<rect x="350" y="272" width="44" height="8" rx="2" fill="#ecf4fc"/>

<!-- ===================== PACIENTE (de pie, vista lateral) ===================== -->
<!-- El paciente se para frente al equipo -->

<!-- Cuerpo paciente -->
<rect x="350" y="330" width="44" height="102" rx="8" fill="#e8d0b0"/>
<!-- Ropa (guardapolvo) -->
<rect x="346" y="350" width="52" height="82" rx="6" fill="#c8dce8" opacity="0.8"/>

<!-- Cuello -->
<rect x="362" y="308" width="20" height="28" rx="5" fill="#e8c890"/>

<!-- Cabeza (dentro del equipo) -->
<ellipse cx="372" cy="268" rx="28" ry="30" fill="#e8c890"/>
<!-- Pelo -->
<ellipse cx="372" cy="244" rx="26" ry="14" fill="#4a2e10"/>
<rect x="346" y="242" width="52" height="12" rx="4" fill="#4a2e10"/>
<!-- Cara -->
<!-- Ojos -->
<ellipse cx="362" cy="260" rx="4" ry="3" fill="#3a2810"/>
<ellipse cx="382" cy="260" rx="4" ry="3" fill="#3a2810"/>
<!-- Nariz -->
<ellipse cx="372" cy="270" rx="3" ry="4" fill="#d8b878"/>
<!-- Boca (abierta con mordida en posición) -->
<rect x="362" y="278" width="20" height="6" rx="3" fill="#c09070"/>
<!-- Mordida/posicionador en boca -->
<rect x="360" y="278" width="24" height="4" rx="2" fill="#e8f0f8"/>

<!-- Brazos paciente -->
<rect x="306" y="352" width="44" height="16" rx="6" fill="#c8dce8" opacity="0.7"/>
<rect x="394" y="352" width="44" height="16" rx="6" fill="#c8dce8" opacity="0.7"/>
<!-- Manos agarrando manijas -->
<ellipse cx="310" cy="360" rx="12" ry="9" fill="#e8c890"/>
<ellipse cx="434" cy="360" rx="12" ry="9" fill="#e8c890"/>

<!-- Piernas -->
<rect x="352" y="432" width="18" height="52" rx="5" fill="#c8dce8" opacity="0.7"/>
<rect x="374" y="432" width="18" height="52" rx="5" fill="#b8ccd8" opacity="0.7"/>
<!-- Pies -->
<ellipse cx="361" cy="484" rx="14" ry="7" fill="#5a4030"/>
<ellipse cx="383" cy="484" rx="14" ry="7" fill="#5a4030"/>

<!-- ===================== PANEL DE CONTROL EN COLUMNA ===================== -->
<rect x="240" y="180" width="52" height="110" rx="7" fill="#b8c4ce"/>
<rect x="245" y="185" width="42" height="78" rx="5" fill="#1a2838"/>
<!-- Pantalla -->
<rect x="247" y="187" width="38" height="44" rx="3" fill="#0e1828"/>
<rect x="249" y="189" width="32" height="3" rx="1" fill="#38bdf8" opacity="0.9"/>
<rect x="249" y="194" width="22" height="3" rx="1" fill="#38bdf8" opacity="0.6"/>
<rect x="249" y="199" width="28" height="3" rx="1" fill="#22d3ee" opacity="0.7"/>
<rect x="249" y="204" width="18" height="3" rx="1" fill="#38bdf8" opacity="0.5"/>
<rect x="249" y="209" width="24" height="3" rx="1" fill="#38bdf8" opacity="0.4"/>
<rect x="249" y="214" width="14" height="3" rx="1" fill="#22d3ee" opacity="0.35"/>
<rect x="249" y="219" width="28" height="3" rx="1" fill="#38bdf8" opacity="0.3"/>
<!-- Botones -->
<circle cx="253" cy="241" r="4" fill="#e05050"/>
<circle cx="264" cy="241" r="4" fill="#e0c050"/>
<circle cx="275" cy="241" r="4" fill="#50c878"/>
<rect x="249" y="249" width="34" height="8" rx="3" fill="#8090a0"/>
<!-- Perilla -->
<circle cx="266" cy="272" r="10" fill="#90a0b0"/>
<circle cx="266" cy="272" r="6" fill="#a0b0c0"/>
<circle cx="264" cy="270" r="2" fill="#c0d0e0"/>

<!-- ===================== MONITOR ===================== -->
<!-- Soporte monitor -->
<rect x="660" y="310" width="14" height="180" rx="4" fill="#b0bcc8"/>
<rect x="638" y="484" width="60" height="10" rx="3" fill="#a8b4c0"/>

<!-- Monitor -->
<rect x="554" y="128" width="248" height="168" rx="8" fill="#b8c4ce"/>
<rect x="560" y="134" width="236" height="154" rx="5" fill="#1a2838"/>

<!-- ===== IMAGEN PANORÁMICA EN PANTALLA ===== -->
<rect x="564" y="138" width="228" height="144" rx="3" fill="#050a10"/>

<!-- Imagen OPG - Vista panorámica dental característica (forma de arco) -->
<!-- La panorámica dental tiene forma de herradura/arco muy característica -->

<!-- Fondo imagen -->
<rect x="564" y="138" width="228" height="144" rx="3" fill="#030608"/>

<!-- Cráneo - parte superior -->
<ellipse cx="678" cy="152" rx="90" ry="22" fill="#1a2838" opacity="0.8"/>
<ellipse cx="678" cy="150" rx="80" ry="16" fill="#0e1828" opacity="0.7"/>

<!-- Maxilar superior (arco dental superior) -->
<path d="M598,185 Q620,168 650,162 Q678,158 706,162 Q736,168 758,185" fill="none" stroke="#3a5878" stroke-width="4"/>
<!-- Dientes superiores (desde el arco) -->
<!-- Incisivos centrales -->
<rect x="670" y="162" width="8" height="16" rx="2" fill="#c8dce8"/>
<rect x="680" y="162" width="8" height="16" rx="2" fill="#c8dce8"/>
<!-- Incisivos laterales -->
<rect x="660" y="163" width="7" height="14" rx="2" fill="#b8ccd8"/>
<rect x="691" y="163" width="7" height="14" rx="2" fill="#b8ccd8"/>
<!-- Caninos -->
<rect x="650" y="164" width="8" height="18" rx="2" fill="#c0d0e0"/>
<rect x="700" y="164" width="8" height="18" rx="2" fill="#c0d0e0"/>
<!-- Premolares superiores -->
<rect x="636" y="166" width="10" height="14" rx="2" fill="#a8b8c8"/>
<rect x="712" y="166" width="10" height="14" rx="2" fill="#a8b8c8"/>
<rect x="624" y="170" width="10" height="14" rx="2" fill="#a8b8c8"/>
<rect x="724" y="170" width="10" height="14" rx="2" fill="#a8b8c8"/>
<!-- Molares superiores -->
<rect x="610" y="174" width="12" height="13" rx="2" fill="#98a8b8"/>
<rect x="736" y="174" width="12" height="13" rx="2" fill="#98a8b8"/>
<rect x="598" y="179" width="10" height="12" rx="2" fill="#8898a8"/>
<rect x="748" y="179" width="10" height="12" rx="2" fill="#8898a8"/>

<!-- Espacio entre arcadas -->
<rect x="596" y="186" width="164" height="8" rx="0" fill="#030608"/>

<!-- Mandíbula (arco inferior) -->
<path d="M596,230 Q618,248 650,256 Q678,260 706,256 Q738,248 760,230" fill="none" stroke="#3a5878" stroke-width="5"/>
<path d="M596,230 Q590,210 590,194 L596,194 Q596,210 600,228" fill="none" stroke="#2a4060" stroke-width="3"/>
<path d="M760,230 Q768,210 766,194 L760,194 Q760,210 756,228" fill="none" stroke="#2a4060" stroke-width="3"/>

<!-- Dientes inferiores -->
<!-- Incisivos centrales -->
<rect x="671" y="238" width="7" height="15" rx="2" fill="#c8dce8"/>
<rect x="680" y="238" width="7" height="15" rx="2" fill="#c8dce8"/>
<!-- Incisivos laterales -->
<rect x="661" y="239" width="7" height="14" rx="2" fill="#b8ccd8"/>
<rect x="689" y="239" width="7" height="14" rx="2" fill="#b8ccd8"/>
<!-- Caninos -->
<rect x="650" y="240" width="8" height="17" rx="2" fill="#c0d0e0"/>
<rect x="700" y="240" width="8" height="17" rx="2" fill="#c0d0e0"/>
<!-- Premolares inferiores -->
<rect x="636" y="242" width="11" height="14" rx="2" fill="#a8b8c8"/>
<rect x="711" y="242" width="11" height="14" rx="2" fill="#a8b8c8"/>
<rect x="623" y="244" width="11" height="13" rx="2" fill="#a8b8c8"/>
<rect x="724" y="244" width="11" height="13" rx="2" fill="#a8b8c8"/>
<!-- Molares inferiores -->
<rect x="608" y="245" width="13" height="13" rx="2" fill="#98a8b8"/>
<rect x="737" y="245" width="13" height="13" rx="2" fill="#98a8b8"/>
<rect x="596" y="243" width="10" height="12" rx="2" fill="#8898a8"/>
<rect x="750" y="243" width="10" height="12" rx="2" fill="#8898a8"/>

<!-- Raíces dentales (debajo de los dientes) -->
<rect x="673" y="253" width="4" height="10" rx="1" fill="#6a8aa0" opacity="0.6"/>
<rect x="682" y="253" width="4" height="10" rx="1" fill="#6a8aa0" opacity="0.6"/>
<rect x="663" y="253" width="4" height="9" rx="1" fill="#6a8aa0" opacity="0.5"/>
<rect x="691" y="253" width="4" height="9" rx="1" fill="#6a8aa0" opacity="0.5"/>
<rect x="653" y="254" width="4" height="12" rx="1" fill="#6a8aa0" opacity="0.5"/>
<rect x="702" y="254" width="4" height="12" rx="1" fill="#6a8aa0" opacity="0.5"/>

<!-- Cóndilos mandibulares (articulación) -->
<ellipse cx="596" cy="192" rx="10" ry="12" fill="#2a4060" opacity="0.9"/>
<ellipse cx="596" cy="192" rx="6" ry="8" fill="#3a5478" opacity="0.8"/>
<ellipse cx="762" cy="192" rx="10" ry="12" fill="#2a4060" opacity="0.9"/>
<ellipse cx="762" cy="192" rx="6" ry="8" fill="#3a5478" opacity="0.8"/>

<!-- Senos maxilares (zonas oscuras características) -->
<ellipse cx="635" cy="178" rx="16" ry="12" fill="#0a1018" opacity="0.6"/>
<ellipse cx="721" cy="178" rx="16" ry="12" fill="#0a1018" opacity="0.6"/>

<!-- Marcador metálico (pendiente u objeto) -->
<circle cx="606" cy="210" r="4" fill="#e8c030" opacity="0.8"/>

<!-- Etiquetas imagen -->
<text x="568" y="148" font-family="monospace" font-size="6" fill="#7ee8ff" opacity="0.8">PANORAMICA DENTAL</text>
<text x="568" y="155" font-family="monospace" font-size="5" fill="#5ab8d0" opacity="0.6">70kV  8mA  16s</text>
<text x="568" y="274" font-family="monospace" font-size="5" fill="#5ab8d0" opacity="0.5">R                    L</text>

<!-- Botones monitor -->
<rect x="560" y="296" width="236" height="9" rx="3" fill="#b0bcc8"/>
<circle cx="576" cy="300" r="4" fill="#50c878"/>
<circle cx="589" cy="300" r="4" fill="#e0e0e0"/>
<rect x="724" y="296" width="60" height="9" rx="3" fill="#a0acb8"/>

<!-- Teclado -->
<rect x="548" y="410" width="248" height="48" rx="5" fill="#c0ccd8"/>
<rect x="552" y="414" width="240" height="40" rx="3" fill="#b0bcc8"/>
<rect x="556" y="418" width="8" height="6" rx="1" fill="#9aa8b4"/>
<rect x="568" y="418" width="8" height="6" rx="1" fill="#9aa8b4"/>
<rect x="580" y="418" width="8" height="6" rx="1" fill="#9aa8b4"/>
<rect x="592" y="418" width="8" height="6" rx="1" fill="#9aa8b4"/>
<rect x="604" y="418" width="8" height="6" rx="1" fill="#9aa8b4"/>
<rect x="616" y="418" width="8" height="6" rx="1" fill="#9aa8b4"/>
<rect x="628" y="418" width="8" height="6" rx="1" fill="#9aa8b4"/>
<rect x="640" y="418" width="8" height="6" rx="1" fill="#9aa8b4"/>
<rect x="652" y="418" width="8" height="6" rx="1" fill="#9aa8b4"/>
<rect x="664" y="418" width="8" height="6" rx="1" fill="#9aa8b4"/>
<rect x="676" y="418" width="8" height="6" rx="1" fill="#9aa8b4"/>
<rect x="688" y="418" width="8" height="6" rx="1" fill="#9aa8b4"/>
<rect x="700" y="418" width="8" height="6" rx="1" fill="#9aa8b4"/>
<rect x="712" y="418" width="8" height="6" rx="1" fill="#9aa8b4"/>
<rect x="556" y="428" width="228" height="6" rx="2" fill="#9aa8b4"/>
<rect x="556" y="438" width="100" height="6" rx="2" fill="#9aa8b4"/>
<rect x="664" y="438" width="120" height="6" rx="2" fill="#9aa8b4"/>
<rect x="588" y="448" width="168" height="6" rx="3" fill="#9aa8b4"/>

<!-- ETIQUETAS -->
<text x="372" y="514" text-anchor="middle" font-family="-apple-system, sans-serif" font-size="13" font-weight="700" fill="#8898a8" letter-spacing="1">Ortopantomógrafo</text>
<text x="678" y="514" text-anchor="middle" font-family="-apple-system, sans-serif" font-size="11" font-weight="600" fill="#8898a8">Workstation</text>
<text x="220" y="174" font-family="-apple-system, sans-serif" font-size="9" font-weight="700" fill="#8898a8" letter-spacing="1">PLANMECA</text>

</svg>
